<svg xmlns="http://www.w3.org/2000/svg" viewBox="0 0 80 80" width="80" height="80">
  <!-- PySirLabs Icon — Flask + Code (Dark) -->
  <g transform="translate(8, 6)">
    <path d="M24 8 L24 24 L10 50 C8 54 11 58 16 58 L48 58 C53 58 56 54 54 50 L40 24 L40 8" stroke="#818cf8" stroke-width="4" stroke-linecap="round" stroke-linejoin="round" fill="none"/>
    <line x1="20" y1="8" x2="44" y2="8" stroke="#818cf8" stroke-width="4" stroke-linecap="round"/>
    <path d="M14 48 L24 28 L40 28 L50 48 C51 51 50 54 48 54 L16 54 C13 54 12 51 14 48Z" fill="#818cf8" opacity="0.15"/>
    <path d="M24 34 L19 39.5 L24 45" stroke="#c7d2fe" stroke-width="3" stroke-linecap="round" stroke-linejoin="round"/>
    <path d="M40 34 L45 39.5 L40 45" stroke="#c7d2fe" stroke-width="3" stroke-linecap="round" stroke-linejoin="round"/>
    <line x1="36" y1="33" x2="28" y2="46" stroke="#a5b4fc" stroke-width="2.5" stroke-linecap="round" opacity="0.7"/>
    <circle cx="26" cy="52" r="2" fill="#a5b4fc" opacity="0.5"/>
    <circle cx="38" cy="50" r="1.5" fill="#c7d2fe" opacity="0.4"/>
  </g>
</svg>
